<?xml version="1.0" encoding="UTF-8"?>
<svg id="Layer_2" data-name="Layer 2" xmlns="http://www.w3.org/2000/svg" viewBox="0 0 305.18 81">
  <defs>
    <style>
      .cls-1 {
        fill: #2b204c;
      }

      .cls-2 {
        fill: #952828;
      }
    </style>
  </defs>
  <g id="Layer_1-2" data-name="Layer 1">
    <g>
      <g>
        <path class="cls-2" d="M70.25,1.22H9.13C4.09,1.22,0,5.3,0,10.34v60.36s4.89-4.9,4.89-4.9l4.9-4.9V15.4c0-2.42,1.97-4.39,4.4-4.39h51c2.42,0,4.39,1.96,4.39,4.39v51.01c0,2.42-1.96,4.39-4.38,4.39H19.69l-4.9,4.9-4.9,4.9h60.37c5.04,0,9.12-4.08,9.12-9.12V10.34c0-5.04-4.09-9.12-9.13-9.12Z"/>
        <path class="cls-2" d="M48.1,51.18h-8.79l-4.9,4.9-4.9,4.9h24.39c3.24,0,5.86-2.62,5.86-5.86v-28.42c0-3.24-2.63-5.86-5.87-5.86h-28.41c-3.24,0-5.86,2.62-5.86,5.86v24.39s4.89-4.9,4.89-4.9l4.9-4.9v-8.79c0-1.03.85-1.87,1.88-1.87h16.8c1.03,0,1.87.84,1.87,1.87v16.81c0,1.03-.83,1.87-1.86,1.87Z"/>
      </g>
      <g>
        <path class="cls-1" d="M106.95,80.71l-6.35-17.3h2.57l5.33,15.6h.02l5.33-15.6h2.45l-6.35,17.3h-3Z"/>
        <path class="cls-1" d="M140.36,63.41v1.99h-8.65v5.26h7.68v1.99h-7.68v6.08h9.14v1.99h-11.46v-17.3h10.98Z"/>
        <path class="cls-1" d="M156.83,80.71h-2.33v-17.3h3.01l9.18,14.32c-.05-2.18-.07-4.36-.07-6.54v-7.78h2.33v17.3h-3l-9.18-14.32c.05,2.4.07,4.8.07,7.17v7.15Z"/>
        <path class="cls-1" d="M182.22,63.41h15.22v1.99h-6.57v15.31h-2.33v-15.31h-6.32v-1.99Z"/>
        <path class="cls-1" d="M212.84,63.41v9.98c0,3.76,1.72,5.57,4.68,5.57s4.56-1.82,4.56-5.57v-9.98h2.33v9.98c0,4.87-2.33,7.61-6.88,7.61s-7-2.71-7-7.61v-9.98h2.33Z"/>
        <path class="cls-1" d="M246.24,63.41c3.54,0,5.96,1.74,5.96,4.77,0,2.45-1.72,4.19-4.48,4.58,1.87.31,2.88,1.19,3.73,3.15l2.08,4.8h-2.59l-1.82-4.31c-.92-2.18-1.77-2.59-4.19-2.59h-3.59v6.91h-2.33v-17.3h7.22ZM241.35,65.39v6.42h4.65c2.23,0,3.83-1.16,3.83-3.22s-1.43-3.2-3.83-3.2h-4.65Z"/>
        <path class="cls-1" d="M277.59,63.41v1.99h-8.65v5.26h7.68v1.99h-7.68v6.08h9.14v1.99h-11.46v-17.3h10.98Z"/>
        <path class="cls-1" d="M292.68,75.33c.14,2.4,1.96,3.71,5.09,3.71,2.96,0,4.51-1.19,4.51-2.91,0-1.94-1.67-2.71-4.8-3.25-4.22-.73-6.44-1.77-6.44-5.11,0-2.74,2.42-4.65,6.42-4.65s6.52,1.72,6.52,5.26h-2.21c-.1-2.11-1.6-3.29-4.31-3.29s-4.1.92-4.1,2.54c0,1.91,1.7,2.64,4.6,3.13,4.12.7,6.64,1.87,6.64,5.21,0,3.05-2.59,5.04-6.83,5.04-4.68,0-7.29-2.11-7.29-5.67h2.21Z"/>
      </g>
      <g>
        <path class="cls-1" d="M125.62.91c11.48,0,19.46,5.02,19.46,14.75,0,7.68-5.17,13.15-14.44,14.52v.08c6.61.99,10.04,4.03,12.77,10.34l6.23,14.6h-12.85l-5.09-11.94c-2.66-6.23-5.63-7.91-11.86-7.91h-7.45v19.84h-11.56V.91h24.78ZM112.39,10.26v15.66h11.18c5.7,0,9.43-2.89,9.43-7.83s-3.5-7.83-9.43-7.83h-11.18Z"/>
        <path class="cls-1" d="M168.49.91v54.28h-11.56V.91h11.56Z"/>
        <path class="cls-1" d="M187.88,38.32c.46,5.85,4.79,8.67,12.77,8.67,7.45,0,11.25-2.51,11.25-6.54,0-4.41-3.95-6.39-13.23-8.06-13.15-2.36-19.46-6.84-19.46-16.88,0-8.74,6.84-15.51,20.68-15.51,13,0,20.98,4.94,20.98,16.5h-10.19c-.3-4.71-3.95-7.37-10.57-7.37-6.23,0-9.66,2.13-9.66,5.93,0,4.18,3.73,6.01,12.32,7.6,13.99,2.58,20.37,7.3,20.37,17.18s-7.83,16.27-22.27,16.27-23.19-6.16-23.19-17.79h10.19Z"/>
        <path class="cls-1" d="M243.83.91v54.28h-11.56V.91h11.56Z"/>
        <path class="cls-1" d="M266.79,55.19h-11.18V.91h16.27l22.43,40.44c-.3-6.69-.38-13.3-.38-19.99V.91h11.25v54.28h-15.05l-23.72-42.57c.3,8.36.38,16.73.38,25.01v17.56Z"/>
      </g>
    </g>
  </g>
</svg>