<?xml version="1.0" encoding="UTF-8"?>
<svg id="Layer_2" data-name="Layer 2" xmlns="http://www.w3.org/2000/svg" viewBox="0 0 130.08 197.72">
  <defs>
    <style>
      .cls-1 {
        fill: #2b204c;
      }

      .cls-2 {
        fill: #952828;
      }
    </style>
  </defs>
  <g id="Layer_1-2" data-name="Layer 1">
    <g>
      <g>
        <path class="cls-2" d="M115.18,0H15.38C7.16,0,.49,6.67.49,14.89v98.55s7.98-8,7.98-8l8-8V23.15c.02-3.96,3.22-7.16,7.18-7.16h83.27c3.96,0,7.16,3.21,7.16,7.16v83.28c.01,3.96-3.19,7.16-7.15,7.16H32.62l-8,8-8,8h98.56c8.23,0,14.89-6.67,14.89-14.89V14.89c-.01-8.22-6.68-14.89-14.9-14.89Z"/>
        <path class="cls-2" d="M79.01,81.57h-14.36l-8,8-8,8h39.82c5.29,0,9.57-4.29,9.57-9.57v-46.39c-.01-5.28-4.3-9.57-9.58-9.57h-46.38c-5.28,0-9.57,4.28-9.57,9.57v39.81s7.98-8,7.98-8l8-8v-14.35c.01-1.68,1.38-3.05,3.07-3.05h27.43c1.68,0,3.05,1.37,3.05,3.05v27.44c.01,1.69-1.35,3.05-3.04,3.05Z"/>
      </g>
      <g>
        <path class="cls-1" d="M4.03,197.54l-4.03-10.97h1.63l3.38,9.9h.02l3.38-9.9h1.55l-4.03,10.97h-1.91Z"/>
        <path class="cls-1" d="M25.21,186.57v1.26h-5.49v3.33h4.87v1.26h-4.87v3.86h5.79v1.26h-7.27v-10.97h6.96Z"/>
        <path class="cls-1" d="M35.66,197.54h-1.48v-10.97h1.91l5.82,9.08c-.03-1.38-.05-2.77-.05-4.15v-4.93h1.48v10.97h-1.91l-5.82-9.08c.03,1.52.05,3.04.05,4.55v4.53Z"/>
        <path class="cls-1" d="M51.76,186.57h9.65v1.26h-4.16v9.71h-1.48v-9.71h-4.01v-1.26Z"/>
        <path class="cls-1" d="M71.18,186.57v6.33c0,2.38,1.09,3.53,2.97,3.53s2.89-1.15,2.89-3.53v-6.33h1.48v6.33c0,3.09-1.48,4.83-4.36,4.83s-4.44-1.72-4.44-4.83v-6.33h1.48Z"/>
        <path class="cls-1" d="M92.37,186.57c2.24,0,3.78,1.11,3.78,3.03,0,1.55-1.09,2.66-2.84,2.9,1.18.2,1.83.75,2.37,2l1.32,3.04h-1.64l-1.15-2.74c-.58-1.38-1.12-1.64-2.66-1.64h-2.27v4.38h-1.47v-10.97h4.58ZM89.26,187.83v4.07h2.95c1.41,0,2.43-.74,2.43-2.04s-.91-2.03-2.43-2.03h-2.95Z"/>
        <path class="cls-1" d="M112.25,186.57v1.26h-5.49v3.33h4.87v1.26h-4.87v3.86h5.79v1.26h-7.27v-10.97h6.96Z"/>
        <path class="cls-1" d="M121.82,194.13c.09,1.52,1.24,2.35,3.23,2.35,1.88,0,2.86-.75,2.86-1.84,0-1.23-1.06-1.72-3.04-2.06-2.67-.46-4.09-1.12-4.09-3.24,0-1.74,1.54-2.95,4.07-2.95s4.13,1.09,4.13,3.33h-1.4c-.06-1.34-1.01-2.09-2.73-2.09s-2.6.58-2.6,1.61c0,1.21,1.08,1.68,2.92,1.98,2.61.45,4.21,1.18,4.21,3.3,0,1.94-1.64,3.2-4.33,3.2-2.97,0-4.63-1.34-4.63-3.6h1.4Z"/>
      </g>
      <g>
        <path class="cls-1" d="M15.86,146.93c7.28,0,12.34,3.18,12.34,9.35,0,4.87-3.28,8.34-9.16,9.21v.05c4.19.63,6.36,2.56,8.1,6.56l3.95,9.26h-8.15l-3.23-7.57c-1.69-3.95-3.57-5.01-7.52-5.01h-4.73v12.58H.15v-34.43h15.72ZM7.48,152.86v9.93h7.09c3.62,0,5.98-1.83,5.98-4.97s-2.22-4.97-5.98-4.97h-7.09Z"/>
        <path class="cls-1" d="M43.06,146.93v34.43h-7.33v-34.43h7.33Z"/>
        <path class="cls-1" d="M55.35,170.65c.29,3.71,3.04,5.5,8.1,5.5,4.72,0,7.14-1.59,7.14-4.15,0-2.8-2.51-4.05-8.39-5.11-8.34-1.49-12.34-4.34-12.34-10.7,0-5.54,4.34-9.84,13.11-9.84,8.24,0,13.31,3.13,13.31,10.46h-6.46c-.19-2.99-2.51-4.68-6.7-4.68-3.95,0-6.12,1.35-6.12,3.76,0,2.65,2.36,3.81,7.81,4.82,8.87,1.64,12.92,4.63,12.92,10.9s-4.97,10.32-14.13,10.32-14.71-3.91-14.71-11.28h6.46Z"/>
        <path class="cls-1" d="M90.84,146.93v34.43h-7.33v-34.43h7.33Z"/>
        <path class="cls-1" d="M105.4,181.36h-7.09v-34.43h10.32l14.22,25.65c-.19-4.24-.24-8.44-.24-12.68v-12.97h7.14v34.43h-9.55l-15.04-27c.19,5.3.24,10.61.24,15.86v11.14Z"/>
      </g>
    </g>
  </g>
</svg>