<?xml version="1.0" encoding="UTF-8"?>
<svg id="Layer_2" data-name="Layer 2" xmlns="http://www.w3.org/2000/svg" viewBox="0 0 16.22 16.22">
  <defs>
    <style>
      .cls-1 {
        fill: #952828;
      }
    </style>
  </defs>
  <g id="Layer_1-2" data-name="Layer 1">
    <g>
      <path class="cls-1" d="M14.36,0H1.87C.84,0,0,.83,0,1.86v12.34s1-1,1-1l1-1V2.9c0-.5.4-.9.9-.9h10.42c.5,0,.9.4.9.9v10.42c0,.5-.4.9-.89.9H4.02l-1,1-1,1h12.34c1.03,0,1.86-.83,1.86-1.86V1.86c0-1.03-.84-1.86-1.87-1.86Z"/>
      <path class="cls-1" d="M9.83,10.21h-1.8l-1,1-1,1h4.98c.66,0,1.2-.54,1.2-1.2v-5.81c0-.66-.54-1.2-1.2-1.2h-5.81c-.66,0-1.2.54-1.2,1.2v4.98s1-1,1-1l1-1v-1.8c0-.21.17-.38.38-.38h3.43c.21,0,.38.17.38.38v3.44c0,.21-.17.38-.38.38Z"/>
    </g>
  </g>
</svg>