<?xml version="1.0" encoding="UTF-8"?>
<svg id="Layer_2" data-name="Layer 2" xmlns="http://www.w3.org/2000/svg" viewBox="0 0 79.38 79.37">
  <defs>
    <style>
      .cls-1 {
        fill: #952828;
      }
    </style>
  </defs>
  <g id="Layer_1-2" data-name="Layer 1">
    <g>
      <path class="cls-1" d="M70.25,0H9.13C4.09,0,0,4.08,0,9.12v60.36s4.89-4.9,4.89-4.9l4.9-4.9V14.18c0-2.42,1.97-4.39,4.4-4.39h51c2.42,0,4.39,1.96,4.39,4.39v51.01c0,2.42-1.96,4.39-4.38,4.39H19.69l-4.9,4.9-4.9,4.9h60.37c5.04,0,9.12-4.08,9.12-9.12V9.12c0-5.04-4.09-9.12-9.13-9.12Z"/>
      <path class="cls-1" d="M48.1,49.96h-8.79l-4.9,4.9-4.9,4.9h24.39c3.24,0,5.86-2.62,5.86-5.86v-28.42c0-3.24-2.63-5.86-5.87-5.86h-28.41c-3.24,0-5.86,2.62-5.86,5.86v24.39s4.89-4.9,4.89-4.9l4.9-4.9v-8.79c0-1.03.85-1.87,1.88-1.87h16.8c1.03,0,1.87.84,1.87,1.87v16.81c0,1.03-.83,1.87-1.86,1.87Z"/>
    </g>
  </g>
</svg>