<svg width="8238" height="9073" viewBox="0 0 8238 9073" fill="none" xmlns="http://www.w3.org/2000/svg">
<path d="M3065.39 7917.92V7234.88C3065.39 7233.82 3064.97 7232.81 3064.23 7232.06L921.391 5072.73C234.991 4309.13 635.391 3445.9 921.391 3109.73L3109.14 932.476C3109.31 932.313 3109.49 932.161 3109.68 932.029C3993.57 314.71 4793.76 674.926 5083.39 932.231L7335.89 3174.23C7936.69 3955.43 7586.22 4765.4 7335.89 5072.73L5202.54 7232.06C5201.81 7232.81 5201.39 7233.82 5201.39 7234.87V7917.75C5201.39 7921.29 5205.65 7923.08 5208.18 7920.61L7621.89 5568.23C8594.89 4422.23 8144.39 3259.23 7723.39 2797.23L5616.89 708.731C4269.69 -513.269 3026.22 199.565 2572.89 708.731L554.892 2715.73C-354.942 3785.94 130.881 5004.95 487.696 5480.97C487.831 5481.15 487.974 5481.31 488.136 5481.46L3058.64 7920.82C3061.19 7923.24 3065.39 7921.43 3065.39 7917.92Z" fill="#982726"/>
<path d="M4396.81 8794.03L4145.16 9026.99C4129.5 9041.49 4105.58 9042.31 4088.96 9028.91L3798.8 8795.04C3790.32 8788.21 3785.39 8777.9 3785.39 8767.01V2806.84C3785.39 2803.28 3781.1 2801.49 3778.57 2804L2512.55 4060.5C2480.73 4092.08 2480.62 4143.5 2512.29 4175.22L3064.22 4728.06C3064.97 4728.81 3065.39 4729.83 3065.39 4730.89V5558.35C3065.39 5561.94 3061.02 5563.71 3058.52 5561.13L1764.27 4224.02C1706.9 4164.75 1706.84 4070.66 1764.14 4011.32L3925.13 1773.44C4001.65 1694.21 4128.26 1693.1 4206.15 1770.99L6446.4 4011.24C6505.49 4070.33 6506.24 4165.88 6448.1 4225.89L5208.26 5505.64C5205.76 5508.22 5201.39 5506.45 5201.39 5502.85V4730.8C5201.39 4729.79 5201.77 4728.82 5202.46 4728.08L5714.54 4177.27C5745.29 4144.19 5743.95 4092.59 5711.51 4061.16L4414.17 2803.81C4411.64 2801.35 4407.39 2803.15 4407.39 2806.68V8769.81C4407.39 8779 4403.56 8787.78 4396.81 8794.03Z" fill="#982726"/>
<path d="M3065.39 7917.92V7234.88C3065.39 7233.82 3064.97 7232.81 3064.23 7232.06L921.391 5072.73C234.991 4309.13 635.391 3445.9 921.391 3109.73L3109.14 932.476C3109.31 932.313 3109.49 932.161 3109.68 932.029C3993.57 314.71 4793.76 674.926 5083.39 932.231L7335.89 3174.23C7936.69 3955.43 7586.22 4765.4 7335.89 5072.73L5202.54 7232.06C5201.81 7232.81 5201.39 7233.82 5201.39 7234.87V7917.75C5201.39 7921.29 5205.65 7923.08 5208.18 7920.61L7621.89 5568.23C8594.89 4422.23 8144.39 3259.23 7723.39 2797.23L5616.89 708.731C4269.69 -513.269 3026.22 199.565 2572.89 708.731L554.892 2715.73C-354.942 3785.94 130.881 5004.95 487.696 5480.97C487.831 5481.15 487.974 5481.31 488.136 5481.46L3058.64 7920.82C3061.19 7923.24 3065.39 7921.43 3065.39 7917.92Z" stroke="#982726" stroke-width="68"/>
<path d="M4396.81 8794.03L4145.16 9026.99C4129.5 9041.49 4105.58 9042.31 4088.96 9028.91L3798.8 8795.04C3790.32 8788.21 3785.39 8777.9 3785.39 8767.01V2806.84C3785.39 2803.28 3781.1 2801.49 3778.57 2804L2512.55 4060.5C2480.73 4092.08 2480.62 4143.5 2512.29 4175.22L3064.22 4728.06C3064.97 4728.81 3065.39 4729.83 3065.39 4730.89V5558.35C3065.39 5561.94 3061.02 5563.71 3058.52 5561.13L1764.27 4224.02C1706.9 4164.75 1706.84 4070.66 1764.14 4011.32L3925.13 1773.44C4001.65 1694.21 4128.26 1693.1 4206.15 1770.99L6446.4 4011.24C6505.49 4070.33 6506.24 4165.88 6448.1 4225.89L5208.26 5505.64C5205.76 5508.22 5201.39 5506.45 5201.39 5502.85V4730.8C5201.39 4729.79 5201.77 4728.82 5202.46 4728.08L5714.54 4177.27C5745.29 4144.19 5743.95 4092.59 5711.51 4061.16L4414.17 2803.81C4411.64 2801.35 4407.39 2803.15 4407.39 2806.68V8769.81C4407.39 8779 4403.56 8787.78 4396.81 8794.03Z" stroke="#982726" stroke-width="68"/>
</svg>
